<svg xmlns="http://www.w3.org/2000/svg" viewBox="0 0 120 120" fill="none">
  <!-- Dış geometrik çerçeve -->
  <polygon points="10,10 110,10 110,110 10,110" stroke="#DC2626" stroke-width="4" fill="none"/>
  <polygon points="20,20 100,20 100,100 20,100" stroke="#111827" stroke-width="3" fill="none"/>
  
  <!-- Ana mandala çemberleri -->
  <circle cx="60" cy="60" r="50" stroke="#DC2626" stroke-width="5" fill="none"/>
  <circle cx="60" cy="60" r="40" stroke="#111827" stroke-width="4" fill="none"/>
  <circle cx="60" cy="60" r="30" stroke="#FDE047" stroke-width="3" fill="none"/>
  
  <!-- İç geometrik katmanlar -->
  <polygon points="60,25 75,35 80,50 75,65 60,75 45,65 40,50 45,35" 
           fill="#DC2626" stroke="#111827" stroke-width="2"/>
  
  <polygon points="60,35 70,42 73,50 70,58 60,65 50,58 47,50 50,42" 
           fill="#111827" stroke="#FDE047" stroke-width="1"/>
  
  <!-- Merkez geometrik şekil -->
  <polygon points="60,45 65,50 67,55 65,60 60,65 55,60 53,55 55,50" 
           fill="#FDE047" stroke="#DC2626" stroke-width="1"/>
  
  <!-- Köşe geometrik elementler -->
  <polygon points="15,15 25,15 25,25 15,25" fill="#DC2626"/>
  <polygon points="95,15 105,15 105,25 95,25" fill="#DC2626"/>
  <polygon points="15,95 25,95 25,105 15,105" fill="#DC2626"/>
  <polygon points="95,95 105,95 105,105 95,105" fill="#DC2626"/>
  
  <!-- İç geometrik çizgiler -->
  <line x1="60" y1="15" x2="60" y2="105" stroke="#111827" stroke-width="2"/>
  <line x1="15" y1="60" x2="105" y2="60" stroke="#111827" stroke-width="2"/>
  <line x1="25" y1="25" x2="95" y2="95" stroke="#DC2626" stroke-width="1.5"/>
  <line x1="95" y1="25" x2="25" y2="95" stroke="#DC2626" stroke-width="1.5"/>
  
  <!-- Merkez nokta -->
  <circle cx="60" cy="60" r="6" fill="#DC2626"/>
  <circle cx="60" cy="60" r="3" fill="#FDE047"/>
</svg>
